<svg xmlns="http://www.w3.org/2000/svg" viewBox="0 0 312.54 76.52"><defs><style>.cls-1{fill:none;stroke:#666;stroke-miterlimit:10;stroke-width:0.25px;}.cls-2,.cls-3{fill:#fff;}.cls-3{font-size:16px;font-family:KozGoPr6N-Regular-90ms-RKSJ-H, Kozuka Gothic Pr6N;}</style></defs><g id="レイヤー_2" data-name="レイヤー 2"><g id="レイヤー_1-2" data-name="レイヤー 1"><path class="cls-1" d="M95.39,59.84a5.3,5.3,0,0,1,2.3.5L98,59.22a6,6,0,0,0-2.68-.5c-3.57,0-6,2.45-6,6.39,0,4.13,2.53,6.16,5.66,6.16a7.51,7.51,0,0,0,3-.54l-.28-1.07a6.2,6.2,0,0,1-2.45.49c-2.85,0-4.58-1.89-4.58-5.09C90.73,61.7,92.62,59.84,95.39,59.84Z"/><path class="cls-1" d="M104.67,64.57v0a2.91,2.91,0,0,0,2.06-2.69,2.64,2.64,0,0,0-.91-2.11,4.73,4.73,0,0,0-3.22-.9,12.71,12.71,0,0,0-2.62.26v12a20.75,20.75,0,0,0,2.25.13c1.84,0,3.16-.35,4-1.15a3.2,3.2,0,0,0,1-2.4A3.12,3.12,0,0,0,104.67,64.57ZM101.31,60a6,6,0,0,1,1.36-.11c1.66,0,2.72.62,2.72,2.06v0c0,1.25-1,2.18-2.66,2.18h-1.42Zm1.29,10.17a7.18,7.18,0,0,1-1.29-.08V65.14h1.28c1.61,0,3.2.67,3.2,2.5S104.28,70.14,102.6,70.14Z"/><path class="cls-1" d="M112.33,58.8a19.67,19.67,0,0,0-3.07.26v12a20.68,20.68,0,0,0,2.64.13A6.92,6.92,0,0,0,117,69.48a6.69,6.69,0,0,0,1.67-4.79C118.64,61.7,117.23,58.8,112.33,58.8Zm-.19,11.32a11.79,11.79,0,0,1-1.56-.08V60a9.66,9.66,0,0,1,1.8-.16c3.17,0,4.86,1.71,4.86,4.88C117.24,68.25,115.44,70.12,112.14,70.12Z"/><path class="cls-1" d="M129,58.71c-3.06,0-5.32,2.42-5.32,6.38,0,3.81,2.15,6.2,5.17,6.2s5.28-2.11,5.28-6.4C134.12,61.21,132.11,58.71,129,58.71Zm-.1,11.47c-2.48,0-3.83-2.52-3.83-5.12s1.17-5.25,3.86-5.25,3.81,2.69,3.81,5.14C132.73,67.74,131.4,70.18,128.89,70.18Z"/><path class="cls-1" d="M140.89,65.25v0a3.2,3.2,0,0,0,2.27-3.12,3.06,3.06,0,0,0-.91-2.28,4.65,4.65,0,0,0-3.34-1,14.34,14.34,0,0,0-2.77.26v12h1.32V65.7H139c1.44,0,2.12.76,2.47,2.45a16.74,16.74,0,0,0,.78,2.95h1.38a18.49,18.49,0,0,1-.9-3.3A3.07,3.07,0,0,0,140.89,65.25ZM139,64.68h-1.57V60a7.73,7.73,0,0,1,1.51-.12c1.49,0,2.85.56,2.85,2.37C141.82,63.72,140.73,64.68,139,64.68Z"/><path class="cls-1" d="M150.27,65.88h2.46v3.9a4.5,4.5,0,0,1-2.06.36c-2.79,0-4.63-1.84-4.63-5.14s1.94-5.09,4.82-5.09a5.86,5.86,0,0,1,2.5.49l.35-1.1a7.06,7.06,0,0,0-2.82-.51,5.9,5.9,0,0,0-6.24,6.29c0,2.58,1.13,6.14,5.92,6.14A9.81,9.81,0,0,0,154,70.6V64.81h-3.77Z"/><path class="cls-1" d="M159.54,58.9l-4,12.2h1.36l1.28-4h4.24l1.32,4h1.41l-4-12.2Zm-1.12,7.19,1.22-3.67c.23-.77.45-1.54.61-2.27h.05c.16.72.37,1.49.62,2.32l1.2,3.62Z"/><path class="cls-1" d="M174.22,64.21c0,1.92,0,3.38.16,5.08h0a39.85,39.85,0,0,0-2.13-4l-3.94-6.42h-1.39V71.1h1.25V65.72c0-2.11,0-3.54-.13-5.09l.06,0a37.82,37.82,0,0,0,2.2,4.07l3.89,6.42h1.32V58.9h-1.26Z"/><rect class="cls-1" x="178.2" y="58.9" width="1.33" height="12.2"/><path class="cls-1" d="M187.61,59.84a5.3,5.3,0,0,1,2.3.5l.36-1.12a6.14,6.14,0,0,0-2.69-.5c-3.57,0-6,2.45-6,6.39,0,4.13,2.53,6.16,5.66,6.16a7.56,7.56,0,0,0,3.05-.54L190,69.66a6.2,6.2,0,0,1-2.45.49c-2.85,0-4.58-1.89-4.58-5.09C183,61.7,184.84,59.84,187.61,59.84Z"/><path class="cls-1" d="M200.54,58.71c-3.06,0-5.32,2.42-5.32,6.38,0,3.81,2.15,6.2,5.17,6.2s5.28-2.11,5.28-6.4C205.67,61.21,203.66,58.71,200.54,58.71Zm-.1,11.47c-2.48,0-3.83-2.52-3.83-5.12s1.17-5.25,3.86-5.25,3.81,2.69,3.81,5.14C204.28,67.74,203,70.18,200.44,70.18Z"/><rect class="cls-1" x="207.69" y="58.9" width="1.33" height="12.2"/><polygon class="cls-1" points="213.08 69.96 213.08 58.9 211.75 58.9 211.75 71.1 218.12 71.1 218.12 69.96 213.08 69.96"/><g id="design"><path class="cls-2" d="M.78,40.39C.05,40,0,39.82,0,38.42c0-2.6.21-4.68.26-5.51,0-.58.16-.84.42-.84s.36.16.36.57a9,9,0,0,0,.16,1.93c.78,3.84,4.21,5.3,7.69,5.3,5,0,7.43-3.59,7.43-6.92,0-3.58-1.51-5.66-6-9.35L8,21.68C2.5,17.16,1.25,13.93,1.25,10.4,1.25,4.84,5.4,1,12,1a20.26,20.26,0,0,1,4.83.52,8.43,8.43,0,0,0,1.82.26c.42,0,.52.11.52.37S19,4.16,19,7.7c0,.83-.1,1.2-.36,1.2s-.37-.26-.42-.68a9.14,9.14,0,0,0-.67-2.6C17.2,5.05,15.8,2.87,11,2.87c-3.59,0-6.39,2.23-6.39,6,0,3,1.35,4.83,6.34,8.73l1.45,1.14C18.56,23.61,20,26.83,20,31a10.77,10.77,0,0,1-4.42,8.63A13.65,13.65,0,0,1,7.74,41.8,15.75,15.75,0,0,1,.78,40.39Z"/><path class="cls-2" d="M63.72,18.36c.14,0,.28-.06.28-.32v-1.1c0-8.21,0-9.68-.09-11.36s-.48-2.63-2-3a8.48,8.48,0,0,0-1.62-.16c-.19,0-.38-.1-.38-.31s.24-.42.76-.42c2.14,0,5.14.15,5.38.15s3.24-.15,4.67-.15c.52,0,.76.1.76.42s-.19.31-.38.31a6.87,6.87,0,0,0-1.19.16c-1.29.27-1.67,1.16-1.76,3C68,7.26,68,8.73,68,16.94v9.25c0,5,0,9.21.24,11.42.14,1.52.43,2.68,1.85,2.89a20.28,20.28,0,0,0,2.15.21c.28,0,.38.16.38.32s-.24.42-.76.42c-2.62,0-5.62-.16-5.86-.16s-3.24.16-4.67.16c-.52,0-.76-.11-.76-.42s.09-.32.38-.32a6.42,6.42,0,0,0,1.43-.21c.95-.21,1.19-1.37,1.38-2.89C64,35.4,64,31.24,64,26.19V20.67a.28.28,0,0,0-.28-.31H41.28c-.14,0-.28.05-.28.31v5.46c0,5,0,9.09.24,11.28.14,1.5.42,2.65,1.85,2.85a17.94,17.94,0,0,0,2.15.21c.28,0,.38.16.38.32s-.24.41-.76.41c-2.62,0-5.62-.15-5.86-.15s-3.24.15-4.67.15c-.52,0-.76-.1-.76-.41,0-.16.09-.32.38-.32a6.42,6.42,0,0,0,1.43-.21c.95-.21,1.19-1.35,1.38-2.85.24-2.19.24-6.29.24-11.28V17c0-8.1,0-9.56-.1-11.22s-.47-2.6-2-3a8.49,8.49,0,0,0-1.62-.15c-.19,0-.38-.1-.38-.31s.23-.42.76-.42c2.14,0,5.14.16,5.38.16s3.23-.16,4.66-.16c.53,0,.76.1.76.42s-.18.31-.38.31a6.77,6.77,0,0,0-1.19.15c-1.28.27-1.66,1.15-1.76,3C41,7.39,41,8.85,41,17V18c0,.26.14.32.28.32Z"/><path class="cls-2" d="M90,16.6c0-8.29,0-9.78-.1-11.48s-.5-2.66-2.15-3a8.53,8.53,0,0,0-1.7-.16c-.2,0-.4-.11-.4-.32s.24-.43.8-.43c2.25,0,5.4.16,5.65.16.55,0,4.35-.16,5.9-.16,3.15,0,6.5.32,9.16,2.34a9.48,9.48,0,0,1,3.45,7.23c0,3.93-1.55,7.86-6,12.27,4.1,5.58,7.5,10.31,10.4,13.6,2.7,3,4.85,3.61,6.1,3.82a11.26,11.26,0,0,0,2,.16c.25,0,.45.16.45.32,0,.32-.29.43-1.2.43h-3.55c-2.8,0-4-.27-5.35-1-2.15-1.23-3.9-3.83-6.76-7.81-2.1-2.92-4.45-6.48-5.45-7.86a.77.77,0,0,0-.65-.32l-6.15-.11c-.25,0-.35.16-.35.43V26c0,5.1,0,9.3.25,11.53.15,1.54.45,2.71,2,2.92a19.88,19.88,0,0,0,2.25.22c.3,0,.4.16.4.32s-.25.42-.8.42c-2.75,0-5.9-.16-6.15-.16-.05,0-3.2.16-4.7.16-.55,0-.8-.1-.8-.42,0-.16.1-.32.4-.32a7.06,7.06,0,0,0,1.5-.22c1-.21,1.25-1.38,1.45-2.92C90,35.25,90,31.05,90,26Zm4,4.77a.67.67,0,0,0,.36.62,14.29,14.29,0,0,0,5.46.83,6.74,6.74,0,0,0,3.9-1c1.82-1.25,3.17-4.06,3.17-8,0-6.49-3.43-10.39-9-10.39a15.44,15.44,0,0,0-3.48.31.61.61,0,0,0-.42.62Z"/><path class="cls-2" d="M137,16.36c0-8.11,0-9.57-.1-11.23s-.57-2.65-1.62-2.91A5.55,5.55,0,0,0,133.81,2c-.19,0-.38-.1-.38-.31s.23-.42.76-.42c1.57,0,4.57.16,4.81.16s3.24-.16,4.66-.16c.53,0,.77.1.77.42s-.19.31-.38.31a6.67,6.67,0,0,0-1.19.15c-1.29.27-1.67,1.15-1.77,3C141,6.79,141,8.25,141,16.35V25.5c0,5,0,9.1.24,11.28.14,1.51.42,2.65,1.85,2.86.67.1,1.67.21,2,.21s.57.15.57.31-.19.42-.72.42c-2.61,0-5.66-.16-5.9-.16s-3.24.16-4.67.16c-.52,0-.76-.1-.76-.42,0-.15.09-.31.52-.31a5.68,5.68,0,0,0,1.24-.16c.95-.2,1.24-1.4,1.43-2.91.24-2.18.24-6.29.24-11.28V16.36Z"/><path class="cls-2" d="M183.27,40.39c-.73-.36-.78-.57-.78-2,0-2.6.21-4.68.26-5.51.05-.57.15-.83.41-.83s.37.15.37.57a9.48,9.48,0,0,0,.15,1.92c.78,3.85,4.21,5.3,7.7,5.3,5,0,7.43-3.58,7.43-6.91,0-3.59-1.51-5.67-6-9.36l-2.34-1.92c-5.51-4.52-6.75-7.75-6.75-11.28,0-5.56,4.15-9.36,10.75-9.36a20.29,20.29,0,0,1,4.84.52,8.29,8.29,0,0,0,1.81.26c.42,0,.52.11.52.37s-.21,2-.21,5.51c0,.83-.1,1.2-.36,1.2s-.36-.26-.42-.68a9.14,9.14,0,0,0-.67-2.6c-.31-.57-1.72-2.75-6.5-2.75-3.58,0-6.39,2.23-6.39,6,0,3,1.35,4.83,6.34,8.73l1.45,1.14c6.14,4.84,7.59,8.06,7.59,12.22a10.77,10.77,0,0,1-4.42,8.63,13.64,13.64,0,0,1-7.84,2.18A15.75,15.75,0,0,1,183.27,40.39Z"/><path class="cls-2" d="M219,16.85c0-8.11,0-9.57-.1-11.23s-.57-2.65-1.62-2.91a5.55,5.55,0,0,0-1.47-.21c-.19,0-.38-.1-.38-.31s.23-.42.76-.42c1.57,0,4.57.15,4.81.15s3.24-.15,4.66-.15c.53,0,.77.1.77.42s-.19.31-.38.31a6.67,6.67,0,0,0-1.19.15c-1.29.26-1.67,1.15-1.77,3C223,7.28,223,8.74,223,16.84V26c0,5,0,9.1.24,11.28.14,1.51.42,2.65,1.85,2.86.67.1,1.67.21,2,.21s.57.15.57.31-.19.42-.72.42c-2.61,0-5.66-.16-5.9-.16s-3.24.16-4.67.16c-.52,0-.76-.11-.76-.42,0-.15.09-.31.52-.31a5.68,5.68,0,0,0,1.24-.16c.95-.2,1.24-1.4,1.43-2.91C219,35.09,219,31,219,26Z"/><path class="cls-2" d="M249,26.1c0,7.64.19,11,1.05,11.9s2,1.2,5.71,1.2c2.53,0,4.62-.05,5.76-1.56a7.64,7.64,0,0,0,1.24-3.12c.05-.42.14-.68.43-.68s.29.21.29.78a36.06,36.06,0,0,1-.72,5.2c-.33,1.2-.48,1.41-3,1.41-4.09,0-8.14-.32-12.76-.32-1.48,0-2.9.16-4.67.16-.52,0-.76-.11-.76-.42,0-.15.09-.31.38-.31a6.42,6.42,0,0,0,1.43-.21c1-.21,1.19-1.35,1.38-2.86C245,35.09,245,31,245,26V16.85c0-8.11,0-9.57-.1-11.23s-.47-2.6-2-3a7.88,7.88,0,0,0-1.62-.16c-.19,0-.38-.1-.38-.31s.23-.42.76-.42c2.14,0,5.14.16,5.38.16s3.71-.16,5.14-.16c.53,0,.77.11.77.42s-.19.31-.39.31a9.74,9.74,0,0,0-1.57.16c-1.38.26-1.76,1.14-1.85,3-.1,1.66-.1,3.12-.1,11.23Z"/><path class="cls-2" d="M285.25,25.36a.57.57,0,0,0-.53.42l-3.2,9.45a11.35,11.35,0,0,0-.75,3.58c0,1.07,1,1.55,1.92,1.55h.48c.54,0,.7.1.7.32s-.48.42-1,.42c-1.28,0-3.42-.15-4-.15s-3.53.15-6,.15c-.69,0-1-.1-1-.42s.27-.32.75-.32a12.3,12.3,0,0,0,1.28-.11c2.45-.32,3.52-2.35,4.48-5L290.49,2.08c.64-1.76.85-2.08,1.17-2.08s.53.27,1.18,1.92c.8,2,9.18,24.08,12.44,32.19,1.92,4.75,3.47,5.6,4.59,5.93a7.24,7.24,0,0,0,2.08.32c.32,0,.59,0,.59.32s-.49.42-1.07.42c-.8,0-4.7,0-8.38-.1-1,0-1.61,0-1.61-.38s.17-.32.38-.37.64-.59.32-1.44l-5-13.13a.46.46,0,0,0-.48-.32Zm10.69-1c.26,0,.26-.16.2-.37l-4.93-14q-.39-1.17-.78,0l-4.58,14c-.1.26,0,.37.16.37Z"/></g><text class="cls-3" transform="translate(87.68 71.1)">CBD ORGANIC OIL</text></g></g></svg>